<svg xmlns="http://www.w3.org/2000/svg" viewBox="0 0 500 365.51"><defs><style>.cls-1{fill:#ebebeb;}.cls-2{fill:#fafafa;}.cls-3{fill:#e0e0e0;}.cls-4{fill:#f0f0f0;}.cls-10,.cls-13,.cls-14,.cls-26,.cls-31,.cls-32,.cls-33,.cls-5,.cls-7{fill:#fff;}.cls-12,.cls-15,.cls-5{opacity:0.1;}.cls-22,.cls-31,.cls-6{opacity:0.3;}.cls-8{fill:#e6e6e6;}.cls-9{fill:#f5f5f5;}.cls-10,.cls-27{opacity:0.8;}.cls-11{fill:#407bff;}.cls-13{opacity:0.7;}.cls-14,.cls-21{opacity:0.5;}.cls-16{fill:#263238;}.cls-17{fill:#ffc3bd;}.cls-18,.cls-22{isolation:isolate;}.cls-18,.cls-19,.cls-29,.cls-32{opacity:0.2;}.cls-20,.cls-33{opacity:0.6;}.cls-23{fill:#ed847e;}.cls-24{fill:#2e353a;}.cls-25{fill:#de5753;}.cls-26{opacity:0.9;}.cls-28{fill:none;stroke:#407bff;stroke-miterlimit:10;}.cls-30{fill:#e8bfbf;}</style></defs><g id="Layer_2" data-name="Layer 2"><g id="Table"><rect class="cls-1" x="416.78" y="343.54" width="33.12" height="0.25"></rect><rect class="cls-1" x="322.53" y="346.26" width="8.69" height="0.25"></rect><rect class="cls-1" x="396.59" y="334.26" width="19.19" height="0.25"></rect><rect class="cls-1" x="52.46" y="335.94" width="43.19" height="0.25"></rect><rect class="cls-1" x="104.56" y="335.94" width="6.33" height="0.25"></rect><rect class="cls-1" x="131.47" y="340.16" width="93.68" height="0.25"></rect><path class="cls-1" d="M237,282.85H43.91a5.71,5.71,0,0,1-5.7-5.71V5.71A5.71,5.71,0,0,1,43.91,0H237a5.71,5.71,0,0,1,5.71,5.71V277.14A5.71,5.71,0,0,1,237,282.85ZM43.91.25a5.46,5.46,0,0,0-5.45,5.46V277.14a5.46,5.46,0,0,0,5.45,5.46H237a5.47,5.47,0,0,0,5.46-5.46V5.71A5.47,5.47,0,0,0,237,.25Z"></path><path class="cls-1" d="M453.31,282.85H260.21a5.72,5.72,0,0,1-5.71-5.71V5.71A5.72,5.72,0,0,1,260.21,0h193.1A5.71,5.71,0,0,1,459,5.71V277.14A5.71,5.71,0,0,1,453.31,282.85ZM260.21.25a5.47,5.47,0,0,0-5.46,5.46V277.14a5.47,5.47,0,0,0,5.46,5.46h193.1a5.47,5.47,0,0,0,5.46-5.46V5.71A5.47,5.47,0,0,0,453.31.25Z"></path><rect class="cls-1" y="327.45" width="500" height="0.25"></rect><rect class="cls-2" x="384.41" y="16.42" width="71.25" height="241.71"></rect><rect class="cls-3" x="368.39" y="101.98" width="89.08" height="154.04"></rect><polygon class="cls-3" points="385.5 80.45 385.5 119.09 392.53 119.09 433.34 119.09 440.37 119.09 440.37 80.45 385.5 80.45"></polygon><rect class="cls-2" x="374.1" y="107.68" width="11.4" height="11.4"></rect><rect class="cls-2" x="396.19" y="107.68" width="11.4" height="11.4"></rect><rect class="cls-2" x="418.28" y="107.68" width="11.4" height="11.4"></rect><rect class="cls-4" x="440.37" y="107.68" width="11.41" height="11.4"></rect><rect class="cls-4" x="374.1" y="128.41" width="11.4" height="11.41"></rect><rect class="cls-4" x="396.19" y="128.41" width="11.4" height="11.41"></rect><rect class="cls-2" x="418.28" y="128.41" width="11.4" height="11.41"></rect><rect class="cls-2" x="440.37" y="128.41" width="11.41" height="11.41"></rect><rect class="cls-4" x="374.1" y="149.13" width="11.4" height="11.4"></rect><rect class="cls-2" x="396.19" y="149.13" width="11.4" height="11.4"></rect><rect class="cls-2" x="418.28" y="149.13" width="11.4" height="11.4"></rect><rect class="cls-2" x="396.19" y="89.77" width="11.4" height="11.4"></rect><rect class="cls-4" x="418.28" y="89.77" width="11.4" height="11.4"></rect><rect class="cls-4" x="440.37" y="149.13" width="11.41" height="11.4"></rect><rect class="cls-2" x="374.1" y="169.85" width="11.4" height="11.4"></rect><rect class="cls-4" x="396.19" y="169.85" width="11.4" height="11.4"></rect><rect class="cls-4" x="418.28" y="169.85" width="11.4" height="11.4"></rect><rect class="cls-2" x="440.37" y="169.85" width="11.41" height="11.4"></rect><rect class="cls-4" x="374.1" y="190.57" width="11.4" height="11.41"></rect><rect class="cls-2" x="396.19" y="190.57" width="11.4" height="11.41"></rect><rect class="cls-2" x="418.28" y="190.57" width="11.4" height="11.41"></rect><rect class="cls-4" x="440.37" y="190.57" width="11.41" height="11.41"></rect><rect class="cls-4" x="374.1" y="211.3" width="11.4" height="11.4"></rect><rect class="cls-2" x="396.19" y="211.3" width="11.4" height="11.4"></rect><rect class="cls-4" x="418.28" y="211.3" width="11.4" height="11.4"></rect><rect class="cls-2" x="440.37" y="211.3" width="11.41" height="11.4"></rect><rect class="cls-2" x="374.1" y="232.02" width="11.4" height="11.41"></rect><rect class="cls-2" x="396.19" y="232.02" width="11.4" height="11.41"></rect><rect class="cls-4" x="418.28" y="232.02" width="11.4" height="11.41"></rect><rect class="cls-4" x="440.37" y="232.02" width="11.41" height="11.41"></rect><rect class="cls-5" x="384.27" y="16.42" width="71.25" height="241.71"></rect><g class="cls-6"><polygon class="cls-7" points="448.55 16.42 425.83 16.42 400.98 258.13 423.69 258.13 448.55 16.42"></polygon></g><rect class="cls-3" x="383.81" y="13.36" width="72.45" height="6.13"></rect><rect class="cls-1" x="383.81" y="256.02" width="72.45" height="6.13"></rect><path class="cls-1" d="M459.07,267.37H380.53V7.37h78.54Zm-72.55-6h66.57v-248H386.52Z"></path><rect class="cls-2" x="306.69" y="16.42" width="71.25" height="241.71"></rect><rect class="cls-8" x="311.62" y="182.09" width="60.93" height="74.77"></rect><polygon class="cls-8" points="367.25 190.38 353.07 190.38 349.17 190.38 345.27 190.38 345.27 198.18 349.17 198.18 353.07 198.18 367.25 198.18 367.25 190.38"></polygon><polygon class="cls-2" points="367.25 205.49 353.07 205.49 349.17 205.49 345.27 205.49 345.27 213.29 349.17 213.29 353.07 213.29 367.25 213.29 367.25 205.49"></polygon><polygon class="cls-8" points="367.25 220.6 353.07 220.6 349.17 220.6 345.27 220.6 345.27 228.4 349.17 228.4 353.07 228.4 367.25 228.4 367.25 220.6"></polygon><polygon class="cls-2" points="367.25 235.71 353.07 235.71 347.05 235.71 345.27 235.71 345.27 243.51 347.05 243.51 353.07 243.51 367.25 243.51 367.25 235.71"></polygon><polygon class="cls-2" points="338.9 190.38 324.73 190.38 320.83 190.38 316.93 190.38 316.93 198.18 320.83 198.18 324.73 198.18 338.9 198.18 338.9 190.38"></polygon><polygon class="cls-2" points="338.9 205.49 324.73 205.49 319.23 205.49 316.93 205.49 316.93 213.29 319.23 213.29 324.73 213.29 338.9 213.29 338.9 205.49"></polygon><polygon class="cls-8" points="338.9 220.6 324.73 220.6 320.83 220.6 316.93 220.6 316.93 228.4 320.83 228.4 324.73 228.4 338.9 228.4 338.9 220.6"></polygon><polygon class="cls-2" points="338.9 235.71 324.73 235.71 320.83 235.71 316.93 235.71 316.93 243.51 320.83 243.51 324.73 243.51 338.9 243.51 338.9 235.71"></polygon><rect class="cls-5" x="306.46" y="16.42" width="71.25" height="241.71"></rect><g class="cls-6"><polygon class="cls-7" points="370.83 16.42 348.12 16.42 323.26 258.13 345.98 258.13 370.83 16.42"></polygon></g><rect class="cls-3" x="306.09" y="13.36" width="72.45" height="6.13"></rect><rect class="cls-1" x="306.09" y="256.02" width="72.45" height="6.13"></rect><path class="cls-1" d="M381.36,267.37H302.82V7.37h78.54Zm-72.56-6h66.57v-248H308.8Z"></path><rect class="cls-2" x="120" y="16.42" width="71.25" height="241.71"></rect><rect class="cls-5" x="119.86" y="16.42" width="71.25" height="241.71"></rect><g class="cls-6"><polygon class="cls-7" points="184.15 16.42 161.43 16.42 136.58 258.13 159.29 258.13 184.15 16.42"></polygon></g><rect class="cls-3" x="119.41" y="13.36" width="72.45" height="6.13"></rect><rect class="cls-1" x="119.41" y="256.02" width="72.45" height="6.13"></rect><path class="cls-1" d="M194.67,267.37H116.13V7.37h78.54Zm-72.55-6h66.56v-248H122.12Z"></path><rect class="cls-2" x="42.39" y="16.42" width="71.25" height="241.71"></rect><rect class="cls-8" x="47.75" y="118.78" width="55.15" height="46.28"></rect><rect class="cls-2" x="51.28" y="124.55" width="7.06" height="7.06"></rect><rect class="cls-2" x="64.96" y="124.55" width="7.06" height="7.06"></rect><rect class="cls-2" x="78.64" y="124.55" width="7.06" height="7.06"></rect><rect class="cls-2" x="92.31" y="124.55" width="7.06" height="7.06"></rect><rect class="cls-2" x="51.28" y="137.37" width="7.06" height="7.06"></rect><rect class="cls-2" x="64.96" y="137.37" width="7.06" height="7.06"></rect><rect class="cls-2" x="78.64" y="137.37" width="7.06" height="7.06"></rect><rect class="cls-8" x="92.31" y="137.37" width="7.06" height="7.06"></rect><rect class="cls-8" x="51.28" y="150.2" width="7.06" height="7.06"></rect><rect class="cls-8" x="64.96" y="150.2" width="7.06" height="7.06"></rect><rect class="cls-2" x="78.64" y="150.2" width="7.06" height="7.06"></rect><rect class="cls-8" x="92.31" y="150.2" width="7.06" height="7.06"></rect><rect class="cls-8" x="47.75" y="164.47" width="55.15" height="46.28"></rect><rect class="cls-2" x="51.28" y="170.24" width="7.06" height="7.06"></rect><rect class="cls-2" x="64.96" y="170.24" width="7.06" height="7.06"></rect><rect class="cls-2" x="78.64" y="170.24" width="7.06" height="7.06"></rect><rect class="cls-2" x="92.31" y="170.24" width="7.06" height="7.06"></rect><rect class="cls-2" x="51.28" y="183.07" width="7.06" height="7.06"></rect><rect class="cls-2" x="64.96" y="183.07" width="7.06" height="7.06"></rect><rect class="cls-2" x="78.64" y="183.07" width="7.06" height="7.06"></rect><rect class="cls-8" x="92.31" y="183.07" width="7.06" height="7.06"></rect><rect class="cls-8" x="51.28" y="195.9" width="7.06" height="7.06"></rect><rect class="cls-8" x="64.96" y="195.9" width="7.06" height="7.06"></rect><rect class="cls-2" x="78.64" y="195.9" width="7.06" height="7.06"></rect><rect class="cls-8" x="92.31" y="195.9" width="7.06" height="7.06"></rect><rect class="cls-8" x="47.75" y="210.17" width="55.15" height="46.28"></rect><rect class="cls-2" x="51.28" y="215.94" width="7.06" height="7.06"></rect><rect class="cls-2" x="64.96" y="215.94" width="7.06" height="7.06"></rect><rect class="cls-2" x="78.64" y="215.94" width="7.06" height="7.06"></rect><rect class="cls-2" x="92.31" y="215.94" width="7.06" height="7.06"></rect><rect class="cls-2" x="51.28" y="228.77" width="7.06" height="7.06"></rect><rect class="cls-2" x="64.96" y="228.77" width="7.06" height="7.06"></rect><rect class="cls-2" x="78.64" y="228.77" width="7.06" height="7.06"></rect><rect class="cls-8" x="92.31" y="228.77" width="7.06" height="7.06"></rect><rect class="cls-8" x="51.28" y="241.6" width="7.06" height="7.06"></rect><rect class="cls-8" x="64.96" y="241.6" width="7.06" height="7.06"></rect><rect class="cls-2" x="78.64" y="241.6" width="7.06" height="7.06"></rect><rect class="cls-8" x="92.31" y="241.6" width="7.06" height="7.06"></rect><rect class="cls-5" x="41.45" y="16.42" width="71.25" height="241.71"></rect><g class="cls-6"><polygon class="cls-7" points="106.53 16.42 83.82 16.42 58.97 258.13 81.68 258.13 106.53 16.42"></polygon></g><rect class="cls-3" x="41.8" y="13.36" width="72.45" height="6.13"></rect><rect class="cls-1" x="41.8" y="256.02" width="72.45" height="6.13"></rect><path class="cls-1" d="M117.06,267.37H38.52V7.37h78.54Zm-72.55-6h66.56v-248H44.51Z"></path><path class="cls-3" d="M243.52,299.66l-.8.1c-.05-.41-4.91-41.09,5.12-74.33,10-33.05,3.1-54.1,3-54.31l.77-.26c.07.22,7,21.51-3,54.8C238.63,258.74,243.47,299.25,243.52,299.66Z"></path><path class="cls-3" d="M252.3,175.65a12.57,12.57,0,0,0-6.76-4.16l.19-.79a13.43,13.43,0,0,1,7.19,4.44Z"></path><rect class="cls-3" x="253.45" y="179.63" width="2.65" height="0.81" transform="translate(-55.61 148.63) rotate(-29.47)"></rect><path class="cls-3" d="M251.43,197.77a19.2,19.2,0,0,0-10.38-10.07l.3-.75a20,20,0,0,1,10.82,10.5Z"></path><path class="cls-3" d="M249.27,223.19h-.81a11.08,11.08,0,0,0-4.18-8.49l.5-.64A11.94,11.94,0,0,1,249.27,223.19Z"></path><path class="cls-3" d="M247.47,229.69l-.76-.3a8.1,8.1,0,0,1,4.6-4.53l.28.76A7.24,7.24,0,0,0,247.47,229.69Z"></path><path class="cls-3" d="M242.23,270.92l-.62-.51c1-1.19,1.73-5.7,2.13-8.12.09-.58.17-1.07.24-1.43l.79.15c-.06.35-.14.84-.24,1.41C243.94,266,243.27,269.67,242.23,270.92Z"></path><path class="cls-3" d="M241.77,283.87a8,8,0,0,0-7.71-5.32l0-.81a8.81,8.81,0,0,1,8.52,5.88Z"></path><rect class="cls-3" x="241.13" y="295.35" width="8.54" height="0.81" transform="translate(-138.65 281.66) rotate(-48.21)"></rect><path class="cls-4" d="M252,250.8c1.29,4.17-7.7,12.11-7.7,12.11s-11.91-1.49-13.2-5.66,1.73-11,7.5-12.78S250.67,246.62,252,250.8Z"></path><path class="cls-1" d="M261.94,200.16c-1.14,4.43-9.66,7.57-9.66,7.57s-5.94-6.86-4.8-11.3,5.85-9.31,9.84-8.28S263.08,195.72,261.94,200.16Z"></path><path class="cls-9" d="M227.77,266.38c5.34,2.08,8.62,11.54,8.62,11.54s-8.81,4.75-14.16,2.67-11-7.95-9.48-11.87S222.42,264.3,227.77,266.38Z"></path><path class="cls-8" d="M239.49,214.35a11.41,11.41,0,0,0,3.65,2.06,3.84,3.84,0,0,0,3.9-.92c1.15-1.31.84-3.35.12-4.94-1.43-3.15-6.7-8.49-10.75-7C230.57,205.8,236.88,212.42,239.49,214.35Z"></path><path class="cls-1" d="M251.45,222.37c-.77.95-1.58,2.15-1.16,3.3A2.46,2.46,0,0,0,253,227a7.11,7.11,0,0,0,2.89-1.42c2.06-1.43,6.29-4.43,3.59-7.24S253.06,220.37,251.45,222.37Z"></path><path class="cls-3" d="M234.19,182.37a2.15,2.15,0,0,0-1.93,1.57c-.17,1,.68,1.91,1.5,2.55,2.05,1.58,8.2,5.84,9.58,1.73C244.64,184.33,236.91,182.07,234.19,182.37Z"></path><path class="cls-8" d="M245.54,168.85c-1.27.13-2.54-.34-3.81-.25s-2.69,1.1-2.4,2.34,1.69,1.54,2.86,1.61a22.86,22.86,0,0,0,6-.41,1.81,1.81,0,0,0,1.21-.62c.52-.75-.3-1.77-1.18-2a13.06,13.06,0,0,1-2.66-.63Z"></path><path class="cls-4" d="M258,177.59c1.28,0,2.51-.5,3.79-.51s2.75.93,2.55,2.19-1.59,1.64-2.76,1.79a22.82,22.82,0,0,1-6,0,1.87,1.87,0,0,1-1.26-.54c-.56-.72.19-1.79,1-2.11a13.3,13.3,0,0,0,2.62-.81Z"></path><path class="cls-4" d="M256.69,271.56a1.8,1.8,0,0,1,1.09-.54,1.22,1.22,0,0,1,1.08,1.06,3.58,3.58,0,0,1-.2,1.61c-.87,2.89-10.57,23.84-12.81,20.07-1.32-2.22,1.93-9.58,2.89-11.67A30.37,30.37,0,0,1,256.69,271.56Z"></path><path class="cls-8" d="M250.89,169.65A10.9,10.9,0,0,1,254,165c1.53-1.11,4-1.2,5.1.33,1.25,1.71,0,4.31-1.91,5.22s-4.14.64-6.24.35c0-.31,0-.62-.05-.94Z"></path><path class="cls-4" d="M257.67,327.6h0a94,94,0,0,1-31.4,0h0l-12.21-36h55.83Z"></path><circle class="cls-3" cx="250.59" cy="37.3" r="20.73"></circle><circle class="cls-1" cx="249.19" cy="36.43" r="20.73" transform="translate(173.32 276.57) rotate(-80.78)"></circle><path class="cls-10" d="M265.83,36.57a16.64,16.64,0,1,1-16.64-16.64A16.64,16.64,0,0,1,265.83,36.57Z"></path><path class="cls-3" d="M248.29,38.14a1.71,1.71,0,0,1,0-2.39,1.69,1.69,0,1,1,0,2.39Z"></path><polygon class="cls-3" points="249.19 36.37 259.01 36.07 259.04 37.09 250.14 37.35 249.18 52.84 248.17 52.78 249.19 36.37"></polygon><path class="cls-11" d="M430.35,308l5.08-80.85a52.15,52.15,0,0,0-52.06-55.43h0a52.16,52.16,0,0,0-52.07,49.22L326,315.33H422.5A7.87,7.87,0,0,0,430.35,308Z"></path><path class="cls-12" d="M430.53,305l4.9-77.92a52.15,52.15,0,0,0-52.06-55.43h0a52.16,52.16,0,0,0-52.07,49.22L326,315.33h93.59A11,11,0,0,0,430.53,305Z"></path><path class="cls-11" d="M414.69,315.33l5.54-88.23a52.16,52.16,0,0,0-52.06-55.43h0a52.15,52.15,0,0,0-52.07,49.22l-5.33,94.44Z"></path><path class="cls-11" d="M416.35,330.52h1.33a1.51,1.51,0,0,0,1.42-1.36l2-13.83H413l2,13.83A1.52,1.52,0,0,0,416.35,330.52Z"></path><path class="cls-13" d="M416.35,330.52h1.33a1.51,1.51,0,0,0,1.42-1.36l2-13.83H413l2,13.83A1.52,1.52,0,0,0,416.35,330.52Z"></path><path class="cls-11" d="M285.7,330.52h1.2a1.44,1.44,0,0,0,1.29-1.36L290,315.33h-7.36l1.79,13.83A1.44,1.44,0,0,0,285.7,330.52Z"></path><path class="cls-14" d="M285.7,330.52h1.2a1.44,1.44,0,0,0,1.29-1.36L290,315.33h-7.36l1.79,13.83A1.44,1.44,0,0,0,285.7,330.52Z"></path><path class="cls-11" d="M323.31,330.52h1.21a1.44,1.44,0,0,0,1.29-1.36l1.78-13.83h-7.35L322,329.16A1.45,1.45,0,0,0,323.31,330.52Z"></path><path class="cls-13" d="M323.31,330.52h1.21a1.44,1.44,0,0,0,1.29-1.36l1.78-13.83h-7.35L322,329.16A1.45,1.45,0,0,0,323.31,330.52Z"></path><path class="cls-11" d="M375.85,330.52h1.33a1.53,1.53,0,0,0,1.43-1.36l2-13.83h-8.11l2,13.83A1.51,1.51,0,0,0,375.85,330.52Z"></path><path class="cls-14" d="M375.85,330.52h1.33a1.53,1.53,0,0,0,1.43-1.36l2-13.83h-8.11l2,13.83A1.51,1.51,0,0,0,375.85,330.52Z"></path><path class="cls-11" d="M331.82,282H296.26l-2.35-34.29-.51-7.35v0l-.23-3.38a22.55,22.55,0,0,0-.35-2.65c0-.2-.08-.4-.12-.59a2.09,2.09,0,0,0-.11-.43,20.48,20.48,0,0,0-5.41-9.2,17.41,17.41,0,0,0-11.11-5h33.45c.36,0,.73,0,1.1,0a17.36,17.36,0,0,1,12.11,5,20.5,20.5,0,0,1,5.42,9.2,2.09,2.09,0,0,1,.11.43,22.37,22.37,0,0,1,.47,3.24l.23,3.38v0Z"></path><path class="cls-12" d="M331.82,282H296.26l-2.35-34.29-.51-7.35v0l-.23-3.38a22.55,22.55,0,0,0-.35-2.65c0-.2-.08-.4-.12-.59a2.09,2.09,0,0,0-.11-.43,20.48,20.48,0,0,0-5.41-9.2,17.41,17.41,0,0,0-11.11-5h33.45c.36,0,.73,0,1.1,0a17.36,17.36,0,0,1,12.11,5,20.5,20.5,0,0,1,5.42,9.2,2.09,2.09,0,0,1,.11.43,22.37,22.37,0,0,1,.47,3.24l.23,3.38v0Z"></path><g class="cls-15"><path d="M360,263.75h14.28c3.48,0,6.29,2.19,6.29,4.9v8.45c0,2.71-2.81,4.91-6.29,4.91H360Z"></path></g><rect class="cls-11" x="296.26" y="263.75" width="73.74" height="18.27" rx="5.42" transform="translate(666.27 545.76) rotate(180)"></rect><path class="cls-11" d="M450,239.32a20.27,20.27,0,0,1-16.81,20L429.54,308c-.32,4.14-3.33,7.31-6.93,7.31H383.39c3.6,0,6.6-3.17,6.92-7.31l2-26L394,259.29a20.21,20.21,0,0,0,14.53-10.66,10.14,10.14,0,0,0,.53-1.1,19.91,19.91,0,0,0,1.74-8.21,20.73,20.73,0,0,0-.42-4.13c-.11-.54-.25-1.09-.4-1.61a20.45,20.45,0,0,0-3.36-6.59h0a20.36,20.36,0,0,0-16.06-7.92h39.22a20.16,20.16,0,0,1,6,.91,20.41,20.41,0,0,1,3.06,1.24,20.11,20.11,0,0,1,7,5.77h0A20.21,20.21,0,0,1,450,239.32Z"></path><path class="cls-12" d="M450,239.32a20.27,20.27,0,0,1-16.81,20L429.54,308c-.32,4.14-3.33,7.31-6.93,7.31H383.39c3.6,0,6.6-3.17,6.92-7.31l2-26L394,259.29a20.21,20.21,0,0,0,14.53-10.66,10.14,10.14,0,0,0,.53-1.1,19.91,19.91,0,0,0,1.74-8.21,20.73,20.73,0,0,0-.42-4.13c-.11-.54-.25-1.09-.4-1.61a20.45,20.45,0,0,0-3.36-6.59h0a20.36,20.36,0,0,0-16.06-7.92h39.22a20.16,20.16,0,0,1,6,.91,20.41,20.41,0,0,1,3.06,1.24,20.11,20.11,0,0,1,7,5.77h0A20.21,20.21,0,0,1,450,239.32Z"></path><path class="cls-11" d="M410.81,239.32c0,10-6.59,18.34-15.24,20L392.23,308c-.29,4.15-3,7.32-6.28,7.32H281.21c-3.26,0-6-3.17-6.28-7.32l-3.35-48.8c-8.48-1.78-14.89-10-14.89-19.89a21.59,21.59,0,0,1,3.39-11.71,19,19,0,0,1,6.77-6.4,16.75,16.75,0,0,1,8.21-2.15,17.4,17.4,0,0,1,12.12,5,20.48,20.48,0,0,1,5.41,9.2,2.09,2.09,0,0,1,.11.43,22.37,22.37,0,0,1,.47,3.24l.24,3.38h0L296.26,282H370.9L374,237c.44-6.36,3.54-11.67,7.84-14.18a17.08,17.08,0,0,1,9.51-3.68,10,10,0,0,1,1.1-.05,16.63,16.63,0,0,1,8,2,1.55,1.55,0,0,1,.22.12A18.74,18.74,0,0,1,407,227h0A21.6,21.6,0,0,1,410.81,239.32Z"></path><path class="cls-5" d="M369.17,315.33h-88c-3.26,0-6-3.17-6.28-7.32l-3.35-48.8c-8.48-1.78-14.89-10-14.89-19.89a21.59,21.59,0,0,1,3.39-11.71,19,19,0,0,1,6.77-6.4,16.75,16.75,0,0,1,8.21-2.15,17.4,17.4,0,0,1,12.12,5,20.48,20.48,0,0,1,5.41,9.2,2.09,2.09,0,0,1,.11.43,22.37,22.37,0,0,1,.47,3.24l.24,3.38h0L296.26,282H370.9Z"></path><path class="cls-16" d="M357.76,176.77c-1.74,1-3.33,1.83-5,2.67s-3.31,1.64-5,2.41c-3.36,1.54-6.76,3-10.26,4.27a110.11,110.11,0,0,1-10.76,3.41,68.84,68.84,0,0,1-11.56,2.07l-.83.07-.39,0c-3.53-.4-6.66-1-9.8-1.7s-6.25-1.39-9.33-2.17-6.14-1.6-9.2-2.48-6.09-1.79-9.12-2.82l1.39-6.95c6.29.41,12.57,1,18.79,1.66l9.29.93c3.06.29,6.19.55,8.93.66l-1.21,0a67.13,67.13,0,0,0,9.26-2.34c3.13-1,6.26-2.14,9.39-3.49s6.23-2.71,9.31-4.18c1.58-.72,3.11-1.49,4.61-2.23s3.1-1.55,4.47-2.27Z"></path><path class="cls-12" d="M357.76,176.77c-1.74,1-3.33,1.83-5,2.67s-3.31,1.64-5,2.41c-3.36,1.54-6.76,3-10.26,4.27a110.11,110.11,0,0,1-10.76,3.41,68.84,68.84,0,0,1-11.56,2.07l-.83.07-.39,0c-3.53-.4-6.66-1-9.8-1.7s-6.25-1.39-9.33-2.17-6.14-1.6-9.2-2.48-6.09-1.79-9.12-2.82l1.39-6.95c6.29.41,12.57,1,18.79,1.66l9.29.93c3.06.29,6.19.55,8.93.66l-1.21,0a67.13,67.13,0,0,0,9.26-2.34c3.13-1,6.26-2.14,9.39-3.49s6.23-2.71,9.31-4.18c1.58-.72,3.11-1.49,4.61-2.23s3.1-1.55,4.47-2.27Z"></path><path class="cls-17" d="M276.63,171.75a17.09,17.09,0,0,0-4.84-2.36L269.2,179.5l7.76,3.26.88-1.08A6.89,6.89,0,0,0,276.63,171.75Z"></path><polygon class="cls-17" points="269.2 179.5 271.79 169.39 264.55 165.44 262.37 172.56 269.2 179.5"></polygon><path class="cls-18" d="M333.41,187l.28,0,.12,0c3.82-.42,15.05-2.3,23.17-10.31-1.21-2.34-2.87-4.16-4.9-4.56C346.48,171.12,339.62,175.13,333.41,187Z"></path><path class="cls-11" d="M340,239.31c9.58-25.86,3.28-49.65,4.48-62.82a15,15,0,0,1,12.14-13.38c6.54-1.27,14.63-2.68,22.34-3.72a15.08,15.08,0,0,1,17.14,15.18c-.67,39-13.17,64.74-13.17,64.74l-20.2-.08Z"></path><path class="cls-10" d="M340,239.31c9.58-25.86,3.28-49.65,4.48-62.82a15,15,0,0,1,12.14-13.38c6.54-1.27,14.63-2.68,22.34-3.72a15.08,15.08,0,0,1,17.14,15.18c-.67,39-13.17,64.74-13.17,64.74l-20.2-.08Z"></path><g id="character-2--inject-102"><polygon class="cls-17" points="263.36 327.59 260.8 344.42 268.93 344.42 274.27 327.59 263.36 327.59"></polygon><path class="cls-16" d="M259.76,340.67l10.87-.26a.61.61,0,0,1,.68.6l0,8a1.83,1.83,0,0,1-1.79,1.63c-3.78,0-5.58-.14-10.36,0a122.2,122.2,0,0,1-15.22-1c-3.87-.66-2.82-4.3-1.07-4.36,7.9-.29,12.32-1.93,15.16-4A2.92,2.92,0,0,1,259.76,340.67Z"></path><polygon class="cls-19" points="262.33 334.34 263.36 327.59 274.27 327.59 271.65 336 262.33 334.34"></polygon><path class="cls-11" d="M335,233.26s-66.15.65-67.18,21.61c-1.46,30.12-6.55,76-6.55,76l12.47,3.43s17.8-45.54,18.49-69.06c18.61-3.71,66.44,0,72.06-12.22a32.72,32.72,0,0,0,2.12-19.8Z"></path><path class="cls-20" d="M335,233.26s-66.15.65-67.18,21.61c-1.46,30.12-6.55,76-6.55,76l12.47,3.43s17.8-45.54,18.49-69.06c18.61-3.71,66.44,0,72.06-12.22a32.72,32.72,0,0,0,2.12-19.8Z"></path><polygon class="cls-17" points="321.56 334.09 325.97 345.52 334.89 345.52 331.82 333.5 321.56 334.09"></polygon><polygon class="cls-19" points="332.65 336.75 330.92 327.96 319.65 329.36 322.54 337 332.65 336.75"></polygon><path class="cls-16" d="M323.55,341.73h11.39a.7.7,0,0,1,.75.65h0l.55,8.53a1.76,1.76,0,0,1-1.77,1.72c-4-.07-5.86-.29-10.87-.29-3.07,0-9.29.3-13.54.3s-4.13-4-2.34-4.32c8.1-1.61,11.23-3.85,14.08-6A3.07,3.07,0,0,1,323.55,341.73Z"></path><path class="cls-11" d="M352.79,233.26s-60,4.06-58.52,25c1.61,22.93,25.64,76.08,25.64,76.08H332S324,286.1,320.32,262.75c16.92,0,56.13,2.55,61.77-9.7a32.79,32.79,0,0,0,2.1-19.8Z"></path><path class="cls-21" d="M352.79,233.26s-60,4.06-58.52,25c1.61,22.93,25.64,76.08,25.64,76.08H332S324,286.1,320.32,262.75c16.92,0,56.13,2.55,61.77-9.7a32.79,32.79,0,0,0,2.1-19.8Z"></path></g><path class="cls-17" d="M361.88,148.47c1.38,5.34,1.81,12-5.65,14.75-2.07,3.3-3.08,6.77,4.89,5.53a24.5,24.5,0,0,0,16.09-9.1c-4.77-4.17-3.9-17-2.69-24.22Z"></path><path class="cls-16" d="M361,158.18c-6.85,1.18-12.48,6.47-15.5,12.73s-3.75,13.37-3.69,20.31.85,13.88.66,20.82c-.21,8-2.14,13.67-4.9,21.21,0,1.79,2.71,2.8,5,3.27,4.78-10.44,7.92-20.41,7.59-31.88-.25-8.32-.36-17.79,1-26s11.17-18.92,10.7-20.39Z"></path><path class="cls-22" d="M367.7,152.38a6.61,6.61,0,0,1-5.06,1.23,22.88,22.88,0,0,0-.28-3.88l8.28-6.8a18.54,18.54,0,0,1,.35,2.68A7.56,7.56,0,0,1,367.7,152.38Z"></path><path class="cls-17" d="M355.32,116.89c-8.75,4.94-8.84,18.94-6.14,27a12.12,12.12,0,0,0,21.23,3.56c4.28-5.42,3.66-10.88,3.45-20.27S364.08,112,355.32,116.89Z"></path><path class="cls-18" d="M358.14,142c-2.82,1.21-5.91,2.78-8.76,2.44a12.11,12.11,0,0,0,21,3c3.5-4.43,4.61-7.43,3.58-15.51C368.52,138.39,364.17,139.45,358.14,142Z"></path><path class="cls-16" d="M366.6,120a8,8,0,0,0,.89,9.58c.79.82,1.76,1.47,2.52,2.32a6.83,6.83,0,0,1,1.72,4.86,5,5,0,0,1,4.75-4.23q-1.78,5.5-3.56,11a15.21,15.21,0,0,0,8.68-12C382.36,124.47,373.6,109.25,366.6,120Z"></path><path class="cls-16" d="M346.18,120.54a6,6,0,0,0-1.39,2.6,2.44,2.44,0,0,0,1,2.59,3.78,3.78,0,0,0,2.38.12l8-1.39c4.58-.8,9.16-1.6,13.68-2.68,2-.48,4.31-1.25,5.11-3.17,2.59-6.25-8.47-7.07-12.17-6.89C356.49,112,350.12,115.67,346.18,120.54Z"></path><path class="cls-17" d="M375.28,131c-2.62.59-3.74,4.36-3.67,6.78,0,2.74,2,4.53,4.32,2.88a8.47,8.47,0,0,0,3.28-5.28C379.68,132.75,377.91,130.38,375.28,131Z"></path><path class="cls-23" d="M356.77,140.52a3.25,3.25,0,0,1-2.73.41c1-2.26.88-1.75,1.19-5.6Z"></path><path class="cls-16" d="M361.38,128c-.75-.84-2.8-1.16-3.91-1h0a.44.44,0,0,1-.49-.36.48.48,0,0,1,.38-.53c1.4-.21,3.73.21,4.68,1.26h0a.45.45,0,0,1,0,.63.69.69,0,0,1-.2.13A.44.44,0,0,1,361.38,128Z"></path><path class="cls-16" d="M348.44,129.92l0,0a.42.42,0,0,1-.12-.59,4.69,4.69,0,0,1,3.43-2.36h0a.42.42,0,0,1,.42.42.46.46,0,0,1-.43.48,3.78,3.78,0,0,0-2.7,1.9.45.45,0,0,1-.36.23A.35.35,0,0,1,348.44,129.92Z"></path><path class="cls-24" d="M356,144.58a38.67,38.67,0,0,1,2.65,3.85l.62-.26c2.82-1.22,3.62-2.92,3.66-4.43a6.32,6.32,0,0,0-1.07-3.37c-1,1.73-3.53,3.11-4.91,3.78A9.82,9.82,0,0,1,356,144.58Z"></path><path class="cls-7" d="M356.93,144.15l.41.56a.84.84,0,0,0,1,.27c2.08-1,3.46-2,4-3.13a.81.81,0,0,0,0-.68,5.51,5.51,0,0,0-.46-.8C360.83,142.1,358.31,143.48,356.93,144.15Z"></path><path class="cls-25" d="M359.25,148.17c2.82-1.22,3.62-2.92,3.66-4.43a8.28,8.28,0,0,0-2.79,2.1A4,4,0,0,0,359.25,148.17Z"></path><path class="cls-16" d="M351.65,133.09c-.49.09-.76.79-.62,1.54s.67,1.29,1.16,1.19.76-.79.62-1.54S352.14,133,351.65,133.09Z"></path><path class="cls-16" d="M360.23,131.67c-.49.09-.76.78-.62,1.53s.67,1.29,1.16,1.19.76-.78.62-1.53S360.72,131.58,360.23,131.67Z"></path><polygon class="cls-26" points="347.87 137.11 354.18 135.69 354.29 138.37 348.42 139.77 347.87 137.11"></polygon><g class="cls-27"><polygon class="cls-26" points="356.1 135.27 356.85 137.73 364.95 135.99 364.47 133.14 356.1 135.27"></polygon></g><polygon class="cls-16" points="354.22 136.68 354.18 135.69 356.1 135.27 356.38 136.2 354.22 136.68"></polygon><path class="cls-16" d="M351.92,238.16s11.39,4.41,14,5.28a33.37,33.37,0,0,0,9.37,2.15,11.53,11.53,0,0,0,8.87-3.31c2.72-2.9,3.57-7.31,4.28-11.43q3.12-18.19,6.26-36.39c1-6,3.63-15,3.41-18.39-.41-6.29-4.42-13.73-14.63-17.83-4-1.59-7.89-1-11.23,3-2,2.39-7.82,8.13-9.25,18.24-1.14,8.1-2.92,18.59-2.81,26.82C360.32,217.12,356,230.76,351.92,238.16Z"></path><path class="cls-16" d="M397.55,172.75c1.16,10.54-4.67,37.11-5.79,38.7-4.78,15.42-17.91,7.11-19.81,6.4-3.31-1.22-6.68-3.61-9.83-5.2-6.11-3-11.9-5.48-17.58-9.26l3.2-6.32c6.23,2.13,23.86,6.68,26.77,7.39,1.26.33,6.17,2.91,6.11-.49.7-1.13,1.66-23.13,3.77-30.91a6.48,6.48,0,0,1,1.23-2.39l.19-.24a6.74,6.74,0,0,1,11.74,2.32Z"></path><path class="cls-5" d="M397.55,172.75c1.16,10.54-4.67,37.11-5.79,38.7-4.78,15.42-17.91,7.11-19.81,6.4-3.31-1.22-6.68-3.61-9.83-5.2-6.11-3-11.9-5.48-17.58-9.26l3.2-6.32c6.23,2.13,23.86,6.68,26.77,7.39,1.26.33,6.17,2.91,6.11-.49.7-1.13,1.66-23.13,3.77-30.91a6.48,6.48,0,0,1,1.23-2.39l.19-.24a6.74,6.74,0,0,1,11.74,2.32Z"></path><polygon class="cls-16" points="345.24 212.55 315.64 212.55 312.26 173.93 341.86 173.93 345.24 212.55"></polygon><polygon class="cls-14" points="345.24 212.55 315.64 212.55 312.26 173.93 341.86 173.93 345.24 212.55"></polygon><polygon class="cls-11" points="344.19 212.36 314.59 212.36 311.21 173.73 340.81 173.73 344.19 212.36"></polygon><polygon class="cls-10" points="344.19 212.36 314.59 212.36 311.21 173.73 340.81 173.73 344.19 212.36"></polygon><polygon class="cls-11" points="332.45 176.15 320 176.15 319.58 171.32 332.02 171.32 332.45 176.15"></polygon><polygon class="cls-11" points="319.58 171.32 320.8 170.9 333.69 170.9 333.87 172.95 332.91 174.06 332.85 175.74 332.45 176.15 332.02 171.32 319.58 171.32"></polygon><polygon class="cls-21" points="319.58 171.32 320.8 170.9 333.69 170.9 333.87 172.95 332.91 174.06 332.85 175.74 332.45 176.15 332.02 171.32 319.58 171.32"></polygon><path class="cls-17" d="M350.1,199.17l.67,3.61c-1.6,4.16-10.77,3.06-10.77,3.06l0-10.66,8.09,1.88A2.7,2.7,0,0,1,350.1,199.17Z"></path><polygon class="cls-17" points="339.98 195.18 340.02 205.87 331.9 206.07 330.04 196.66 339.98 195.18"></polygon><path class="cls-11" d="M370.9,282,374,237c.44-6.36,3.54-11.67,7.84-14.18a17.08,17.08,0,0,1,9.51-3.68,10,10,0,0,1,1.1-.05,16.63,16.63,0,0,1,8,2,1.55,1.55,0,0,1,.22.12A18.74,18.74,0,0,1,407,227h0a21.6,21.6,0,0,1,3.8,12.33c0,10-6.59,18.34-15.24,20L392.23,308c-.29,4.15-3,7.32-6.28,7.32H369.17Z"></path><path class="cls-5" d="M370.9,282,374,237c.44-6.36,3.54-11.67,7.84-14.18a17.08,17.08,0,0,1,9.51-3.68,10,10,0,0,1,1.1-.05,16.63,16.63,0,0,1,8,2,1.55,1.55,0,0,1,.22.12A18.74,18.74,0,0,1,407,227h0a21.6,21.6,0,0,1,3.8,12.33c0,10-6.59,18.34-15.24,20L392.23,308c-.29,4.15-3,7.32-6.28,7.32H369.17Z"></path><path class="cls-28" d="M218.3,72.65v41.81a4,4,0,0,1-4,4H171.48l-15.3,11.83a2.92,2.92,0,0,1-4.68-2.34v-9.49h-2.39a4,4,0,0,1-4-4V72.64a3.94,3.94,0,0,1,4-3.92h65.26A3.93,3.93,0,0,1,218.3,72.65Z"></path><rect class="cls-11" x="170.03" y="62.83" width="8.17" height="1"></rect><path class="cls-11" d="M140,74.61h-1V69.68a6.87,6.87,0,0,1,6.87-6.86h18.23v1H145.85A5.88,5.88,0,0,0,140,69.68Z"></path><path class="cls-11" d="M197.77,99.35A3.16,3.16,0,0,1,194.61,96v0c1.07-12.19,10.73-13.31,11.94-27.18.35-4-1.11-5.5-3.9-5.5s-4.51,1.52-4.86,5.5l-.2,2.29a4.14,4.14,0,0,1-4.12,3.77h0a4.13,4.13,0,0,1-4.11-4.49l.09-1c.78-8.92,5.61-14,14.14-14s12.46,5.11,11.68,14C214,83.81,203.45,86,202.55,96.24a.76.76,0,0,1,0,.15,3.18,3.18,0,0,1-3.16,3Zm4.33,8.48v0a4.21,4.21,0,0,1-4.19,3.84h0a4.2,4.2,0,0,1-4.19-4.57v0a4.21,4.21,0,0,1,4.2-3.84h0A4.22,4.22,0,0,1,202.1,107.83Z"></path><path class="cls-11" d="M186.5,89.56h-23a2,2,0,0,1,0-4h23a2,2,0,0,1,0,4Z"></path><path class="cls-11" d="M183.32,97.47H163.54a2,2,0,0,1,0-4h19.78a2,2,0,0,1,0,4Z"></path><path class="cls-11" d="M180.14,105.39h-16.6a2,2,0,0,1,0-4h16.6a2,2,0,0,1,0,4Z"></path><path class="cls-11" d="M133.08,268.56H118.47c-3.56,0-6.44,2.25-6.44,5v8.64c0,2.77,2.88,5,6.44,5h14.61Z"></path><path class="cls-11" d="M65.18,309.25,60.1,228.39A52.16,52.16,0,0,1,112.15,173h0a52.16,52.16,0,0,1,52.08,49.22l5.32,94.44H73A7.87,7.87,0,0,1,65.18,309.25Z"></path><path class="cls-12" d="M65,306.32,60.1,228.39A52.16,52.16,0,0,1,112.15,173h0a52.16,52.16,0,0,1,52.08,49.22l5.32,94.44H76A11,11,0,0,1,65,306.32Z"></path><path class="cls-11" d="M80.84,316.62,75.3,228.39A52.16,52.16,0,0,1,127.36,173h0a52.16,52.16,0,0,1,52.07,49.22l5.33,94.44Z"></path><path class="cls-11" d="M79.18,331.81H77.85a1.53,1.53,0,0,1-1.43-1.35l-2-13.83h8.11l-2,13.83A1.51,1.51,0,0,1,79.18,331.81Z"></path><path class="cls-13" d="M79.18,331.81H77.85a1.53,1.53,0,0,1-1.43-1.35l-2-13.83h8.11l-2,13.83A1.51,1.51,0,0,1,79.18,331.81Z"></path><path class="cls-11" d="M209.83,331.81h-1.21a1.44,1.44,0,0,1-1.29-1.35l-1.78-13.83h7.35l-1.78,13.83A1.44,1.44,0,0,1,209.83,331.81Z"></path><path class="cls-14" d="M209.83,331.81h-1.21a1.44,1.44,0,0,1-1.29-1.35l-1.78-13.83h7.35l-1.78,13.83A1.44,1.44,0,0,1,209.83,331.81Z"></path><path class="cls-11" d="M172.22,331.81H171a1.44,1.44,0,0,1-1.29-1.35l-1.79-13.83h7.36l-1.78,13.83A1.45,1.45,0,0,1,172.22,331.81Z"></path><path class="cls-13" d="M172.22,331.81H171a1.44,1.44,0,0,1-1.29-1.35l-1.79-13.83h7.36l-1.78,13.83A1.45,1.45,0,0,1,172.22,331.81Z"></path><path class="cls-11" d="M119.68,331.81h-1.33a1.52,1.52,0,0,1-1.43-1.35l-2-13.83h8.11l-2,13.83A1.51,1.51,0,0,1,119.68,331.81Z"></path><path class="cls-14" d="M119.68,331.81h-1.33a1.52,1.52,0,0,1-1.43-1.35l-2-13.83h8.11l-2,13.83A1.51,1.51,0,0,1,119.68,331.81Z"></path><path class="cls-11" d="M163.71,283.3h35.56L201.62,249l.5-7.36h0l.24-3.39a22.84,22.84,0,0,1,.34-2.65c0-.19.09-.39.13-.59a2,2,0,0,1,.11-.42,20.43,20.43,0,0,1,5.41-9.2,17.45,17.45,0,0,1,11.1-5H186c-.37,0-.73,0-1.1,0a17.35,17.35,0,0,0-12.12,5,20.43,20.43,0,0,0-5.41,9.2,2,2,0,0,0-.11.42,22.57,22.57,0,0,0-.47,3.24l-.23,3.39h0Z"></path><path class="cls-12" d="M163.71,283.3h35.56L201.62,249l.5-7.36h0l.24-3.39a22.84,22.84,0,0,1,.34-2.65c0-.19.09-.39.13-.59a2,2,0,0,1,.11-.42,20.43,20.43,0,0,1,5.41-9.2,17.45,17.45,0,0,1,11.1-5H186c-.37,0-.73,0-1.1,0a17.35,17.35,0,0,0-12.12,5,20.43,20.43,0,0,0-5.41,9.2,2,2,0,0,0-.11.42,22.57,22.57,0,0,0-.47,3.24l-.23,3.39h0Z"></path><g class="cls-15"><path d="M135.53,265H121.24c-3.47,0-6.28,2.2-6.28,4.91v8.45c0,2.71,2.81,4.9,6.28,4.9h14.29Z"></path></g><rect class="cls-11" x="125.52" y="265.04" width="73.74" height="18.27" rx="5.42"></rect><path class="cls-11" d="M45.5,240.61a20.25,20.25,0,0,0,16.81,20L66,309.31c.32,4.14,3.32,7.32,6.92,7.32h39.23c-3.6,0-6.6-3.18-6.92-7.32l-2-26-1.72-22.72A20.2,20.2,0,0,1,87,249.92c-.19-.35-.36-.72-.52-1.09a20.14,20.14,0,0,1-1.32-12.35c.11-.54.25-1.08.39-1.61a20.77,20.77,0,0,1,3.37-6.59h0A20.31,20.31,0,0,1,105,220.36H65.76a20,20,0,0,0-9.06,2.14,20.17,20.17,0,0,0-7,5.77h0A20.21,20.21,0,0,0,45.5,240.61Z"></path><path class="cls-12" d="M45.5,240.61a20.25,20.25,0,0,0,16.81,20L66,309.31c.32,4.14,3.32,7.32,6.92,7.32h39.23c-3.6,0-6.6-3.18-6.92-7.32l-2-26-1.72-22.72A20.2,20.2,0,0,1,87,249.92c-.19-.35-.36-.72-.52-1.09a20.14,20.14,0,0,1-1.32-12.35c.11-.54.25-1.08.39-1.61a20.77,20.77,0,0,1,3.37-6.59h0A20.31,20.31,0,0,1,105,220.36H65.76a20,20,0,0,0-9.06,2.14,20.17,20.17,0,0,0-7,5.77h0A20.21,20.21,0,0,0,45.5,240.61Z"></path><path class="cls-11" d="M84.72,240.62c0,10,6.59,18.34,15.24,20l3.34,48.73c.29,4.14,3,7.32,6.28,7.32H214.32c3.26,0,6-3.18,6.28-7.32L224,260.5c8.47-1.78,14.88-10,14.88-19.88a21.56,21.56,0,0,0-3.38-11.71,19,19,0,0,0-6.78-6.41,16.75,16.75,0,0,0-8.2-2.15,17.39,17.39,0,0,0-12.12,5.05,20.5,20.5,0,0,0-5.42,9.19,3.13,3.13,0,0,0-.1.44,20.94,20.94,0,0,0-.47,3.23l-.24,3.39h0l-2.85,41.64H124.63l-3.09-45c-.45-6.36-3.54-11.66-7.84-14.17a17.07,17.07,0,0,0-9.51-3.69,10.12,10.12,0,0,0-1.1-.05,16.63,16.63,0,0,0-8,2,2.53,2.53,0,0,0-.23.12,19,19,0,0,0-6.36,5.77h0A21.56,21.56,0,0,0,84.72,240.62Z"></path><path class="cls-5" d="M126.35,316.63h88c3.26,0,6-3.18,6.28-7.32L224,260.5c8.47-1.78,14.88-10,14.88-19.88a21.56,21.56,0,0,0-3.38-11.71,19,19,0,0,0-6.78-6.41,16.75,16.75,0,0,0-8.2-2.15,17.39,17.39,0,0,0-12.12,5.05,20.5,20.5,0,0,0-5.42,9.19,3.13,3.13,0,0,0-.1.44,20.94,20.94,0,0,0-.47,3.23l-.24,3.39h0l-2.85,41.64H124.63Z"></path><polygon class="cls-17" points="153.13 333.84 161.66 336.2 169.32 316.15 160.79 313.78 153.13 333.84"></polygon><path class="cls-16" d="M165.48,333.54a4.45,4.45,0,0,0-2.73-1.66L154,330.17a.8.8,0,0,0-1,.54l-2.71,8a1.75,1.75,0,0,0,1.07,2.24l.06,0c3.24,1.27,5.43.83,10.49,1.81,3.13.61,9.68,2.69,14.06,2.51s4.37-4.51,2.53-4.83C172,339.44,167,335.51,165.48,333.54Z"></path><g class="cls-29"><polygon points="169.32 316.15 165.37 326.49 156.84 324.12 160.78 313.78 169.32 316.15"></polygon></g><path class="cls-11" d="M140.85,240.09s51.36-.28,49.76,16.92c-1.08,11.61-6.66,23.83-11,35.62-6.31,17.09-11.78,32-11.78,32l-11.7-4.05s10.51-49.42,17.59-54.48H130.29c-14.37,0-20.58-15.78-6.59-34.18C132.25,231.91,140.85,240.09,140.85,240.09Z"></path><path class="cls-20" d="M140.85,240.09s51.36-.28,49.76,16.92c.79,10.69-22.79,67.6-22.79,67.6l-11.7-4.05s10.51-49.42,17.59-54.48H130.29c-14.37,0-20.58-15.78-6.59-34.18C132.25,231.91,140.85,240.09,140.85,240.09Z"></path><path class="cls-16" d="M177.07,208.82c-6.32,5.77-18.73-7.89-20.73-9.52-4.28-3.49-16.86-15.24-16.2-19.32,2-12,21.68,5,27.37,16.72Z"></path><path class="cls-11" d="M121.76,172.71c-3.17.67-6.6-.47-8.83,1.88s-3.16,5.65-3.48,8.87a59,59,0,0,0,.7,13.46q1,8.12,2.09,16.24a48.39,48.39,0,0,1-.51,13.38v0a2.14,2.14,0,0,0,1.22,2.32s24.59.85,31.74.58c3.8-.14,1.19-10.14,2.36-16,.26-1.29,2.8-6.63,3.18-8,1.76-6.46.59-10.89-1-17.38-1.19-4.7-1.68-11.5-4.08-12C140.83,175.17,130.58,170.83,121.76,172.71Z"></path><path class="cls-10" d="M121.76,172.71c-3.17.67-6.6-.47-8.83,1.88s-3.16,5.65-3.48,8.87a59,59,0,0,0,.7,13.46q1,8.12,2.09,16.24a48.39,48.39,0,0,1-.51,13.38v0a2.14,2.14,0,0,0,1.22,2.32s24.59.85,31.74.58c3.8-.14,1.19-10.14,2.36-16,.26-1.29,2.8-6.63,3.18-8,1.76-6.46.59-10.89-1-17.38-1.19-4.7-1.68-11.5-4.08-12C140.83,175.17,130.58,170.83,121.76,172.71Z"></path><path class="cls-16" d="M118.25,177.32c-.33-.5-9-7.78-10.55.64-2.19,11.7,2.34,23.23,2.34,23.23s1,12.67,4.72,13.93,7.18,1.58,8.42-.58a12.9,12.9,0,0,0,1.24-5.42S124,186.07,118.25,177.32Z"></path><path class="cls-30" d="M124.24,156.64c.89,5.39,1.64,15.24-2.21,18.71,0,0,9.41,4.93,15.59,13.53a8.16,8.16,0,0,0,2.86-9.1,8,8,0,0,0-4-4.79c-3.65-2-3.3-5.77-2.3-9.31Z"></path><path class="cls-18" d="M125.47,165.79l3.51,1.35a11.85,11.85,0,0,0,4.72.76h0a7.52,7.52,0,0,0,0,3.34,6.74,6.74,0,0,1-7-2.24A11.59,11.59,0,0,1,125.47,165.79Z"></path><polygon class="cls-17" points="212.6 316.59 222.16 316.59 212.15 292.62 205.67 303.63 212.6 316.59"></polygon><path class="cls-16" d="M221.37,314.33l-11.21-2.55a.79.79,0,0,0-.94.5l-3.13,8.63a1.72,1.72,0,0,0,1.18,2.13h0c3.93.83,5.86,1,10.79,2.14,3,.69,10.72,2.71,14.91,3.66s5.29-3.16,3.62-3.93c-7.48-3.47-11.53-6.78-13.7-9.59A2.7,2.7,0,0,0,221.37,314.33Z"></path><g class="cls-29"><polygon points="212.15 292.63 216.41 302.84 207.81 307.64 205.67 303.64 212.15 292.63"></polygon></g><path class="cls-16" d="M111.54,229l-1,3.26c-.13.25.16.51.58.53l37,1.12c.34,0,.61-.14.64-.36l.43-3.27c0-.23-.26-.42-.61-.44l-36.4-1.1A.67.67,0,0,0,111.54,229Z"></path><path class="cls-11" d="M157.82,255.73c-12.17,5.18-25.37,10.37-32.55,10.37-14.38,0-27.15-10.38-13.54-34,8.56,0,23.43.25,23.43.25s28-8,48.38-5.64a23,23,0,0,1,19.89,18.37c5.16,26,13.11,54.12,13.11,54.12l-10.23,7S190.36,272.63,181.18,246C176.32,247.57,167.39,251.65,157.82,255.73Z"></path><path class="cls-21" d="M203.43,245.09a23,23,0,0,0-19.89-18.37c-20.34-2.32-48.38,5.64-48.38,5.64s-14.87-.28-23.43-.25c-13.83,23.53-.84,34,13.54,34,7.18,0,20.38-5.19,32.55-10.37,9.57-4.08,18.5-8.16,23.36-9.71,9.18,26.61,25.13,60.15,25.13,60.15l10.23-7S208.59,271.07,203.43,245.09Z"></path><path class="cls-11" d="M190.61,257a94.88,94.88,0,0,1-1.5,9.95,2.88,2.88,0,0,1-.13-.31l0-.08a1.79,1.79,0,0,0-.13-.32c-2.72-6.76-5.38-13.7-7.63-20.22l.07,0h0C187.11,248.53,191.08,252,190.61,257Z"></path><path class="cls-20" d="M190.61,257a94.88,94.88,0,0,1-1.5,9.95,2.88,2.88,0,0,1-.13-.31l0-.08a1.79,1.79,0,0,0-.13-.32c-2.72-6.76-5.38-13.7-7.63-20.22l.07,0h0C187.11,248.53,191.08,252,190.61,257Z"></path><path class="cls-30" d="M117.68,151.46c3,8.45,4.1,12.09,9.72,15.26,8.47,4.78,18.17-.78,17.75-10-.38-8.26-5.23-20.7-14.63-21.7a12.24,12.24,0,0,0-12.84,16.4Z"></path><path class="cls-16" d="M132.87,150.36c.21.73.74,1.16,1.2,1s.64-.8.46-1.51-.73-1.16-1.2-1S132.67,149.66,132.87,150.36Z"></path><path class="cls-16" d="M140.72,147.88c.21.74.74,1.17,1.2,1s.64-.79.46-1.5-.74-1.16-1.19-1S140.52,147.18,140.72,147.88Z"></path><path class="cls-16" d="M141,146.48l1.54-1S142.05,147.07,141,146.48Z"></path><path class="cls-23" d="M137.91,149.48a19.51,19.51,0,0,0,3.78,3.76,3.1,3.1,0,0,1-2.37,1.15Z"></path><path class="cls-16" d="M112.16,157.09a25.54,25.54,0,0,1,1.39,4.7,6.51,6.51,0,0,1-5.55,6.8,6.28,6.28,0,0,0,7.23-3.26A8.53,8.53,0,0,1,111,170a9.1,9.1,0,0,0,7.25-3.49c-.47,1.21-1,2.43-1.42,3.65a15.74,15.74,0,0,0,5.65-5.92c.53-1,.93-2.3.23-3.19s-1.81-.81-2.83-.83-2.25-.26-2.62-1.21.31-1.9,1.05-2.55,1.63-1.25,1.9-2.2a4.14,4.14,0,0,0-.14-2.06c-.46-1.84-.91-3.69-1.36-5.53a5.74,5.74,0,0,0-.69-1.85c-2-3-4.23,1.39-5,2.89A13.11,13.11,0,0,0,112.16,157.09Z"></path><path class="cls-30" d="M117.09,159.73a7,7,0,0,0,4.64,2.7c2.45.3,3.31-2,2.33-4.1-.89-1.91-3.23-4.36-5.54-3.71S115.71,157.89,117.09,159.73Z"></path><path class="cls-16" d="M133,144.32a.45.45,0,0,1-.37.37c-2,.39-3.16,2.8-3.16,2.82a.45.45,0,0,1-.82-.37c.09-.08,1.33-2.86,3.81-3.33a.46.46,0,0,1,.52.36A.25.25,0,0,1,133,144.32Z"></path><path class="cls-16" d="M138.34,142.32a.46.46,0,0,0-.38.1c-.11.12-.48.33-.27.43,1.22.63,2.91,1.65,4.21,1.44.22,0,.74-.23.63-.39a.67.67,0,0,0-.6-.2c-1,.15-2.41-.82-3.37-1.32A.9.9,0,0,0,138.34,142.32Z"></path><path class="cls-16" d="M133.14,149l1.55-1S134.2,149.54,133.14,149Z"></path><path class="cls-16" d="M133,131.33c-3.41-.62-3.85-.85-7.31-.63a17.26,17.26,0,0,0-9.69,3.36,15.77,15.77,0,0,0-5.29,8.46,24.45,24.45,0,0,0-.26,10.08,6.58,6.58,0,0,0,1.94,4.22,25.75,25.75,0,0,1,.91-5.32,8.66,8.66,0,0,1,3-4.4,4.71,4.71,0,0,0,1.6-1.43,5.77,5.77,0,0,0,.36-1.81,5.62,5.62,0,0,1,2.34-3.43,18.66,18.66,0,0,1,3.77-1.94c4.21-1.82,8.8-2.85,12.68-5.29A17.89,17.89,0,0,0,133,131.33Z"></path><path class="cls-16" d="M115.55,144.71a6.6,6.6,0,0,0,3.57,2.22c1.66.38,5.81.29,6.06-.14s-1.23-5.1-2.91-5.38a11.37,11.37,0,0,0,4.06,2.53,13.26,13.26,0,0,0,5.2,0c.88-.2-1.09-3.84-2.52-4.88,4.31.9,8.87,1.92,12,5s4.48,7.94,4.32,12.47a6.21,6.21,0,0,0,2.31-4.92,18.38,18.38,0,0,1-1.27,14.27c4.58-3.76,6.29-10.33,5.09-16.14s-5-10.84-9.61-14.55c-4-3.17-8.76-5.54-13.83-5.66C121.37,129.32,109.05,136.88,115.55,144.71Z"></path><path class="cls-30" d="M120.94,171.44c0-.33.08-.76.12-1.23a4.26,4.26,0,0,0-3.48-4.55h0a1.79,1.79,0,0,1-1.36-1.16c-.77-2.24-1.07-2.92-1.81-5.13-2-.48-4.41.26-6.5.49a18.22,18.22,0,0,0-.12,7.64,3.48,3.48,0,0,0,.64,1.56,27.27,27.27,0,0,0,6.24,3.84C116.47,173.44,119,171.62,120.94,171.44Z"></path><path class="cls-30" d="M114.88,173s-5.51,35.55.17,41c3.33,3.19,6.21,1.43,8-.56a7.1,7.1,0,0,0,1.74-5.48l-3.87-36.43S117.12,169.22,114.88,173Z"></path><path class="cls-30" d="M174.08,205a15,15,0,0,0,4.66-7.47,14.59,14.59,0,0,0,.2-3.1c-.05-6.44-1.87-18.25-1.87-18.25l-5.23-1.73s-1.63,9-2,13.92c-.07,1-.18,2.11-.3,3.32-.23,2.2-.51,4.62-.76,6.62Z"></path><path class="cls-16" d="M177.07,208.82c1.61-1.47,1.88-3.25,2.71-7,.79-3.59-.1-8-.84-7.33a.72.72,0,0,0-.2.31c-1.27,3-6.21.37-7.61-1.13a10.54,10.54,0,0,1-1.58-1.92,1.63,1.63,0,0,1,0-1.83c-1.52-.62-2.74,5.36-2,6.83l.38,1.1a15.26,15.26,0,0,0,2.74,4.94l2.75,3.31Z"></path><path class="cls-30" d="M171.7,175.24l-.62-9.14a37.14,37.14,0,0,0,5,2c2.54.86,6-.67,5.2,1a69.5,69.5,0,0,1-4.26,7.16Z"></path><path class="cls-30" d="M171.08,166.1,175,157l5.12,3.13c1.41,3.06,1.24,9,1.24,9S174.24,169.36,171.08,166.1Z"></path><path class="cls-16" d="M137.31,159.05c.13.66.6,1.11,1,1s.65-.69.51-1.35-.6-1.1-1-1S137.17,158.44,137.31,159.05Z"></path><path class="cls-11" d="M124.63,283.3l-3.09-45c-.45-6.36-3.54-11.66-7.84-14.17a17.07,17.07,0,0,0-9.51-3.69,10.12,10.12,0,0,0-1.1-.05,16.63,16.63,0,0,0-8,2,2.53,2.53,0,0,0-.23.12,19,19,0,0,0-6.36,5.77h0a21.56,21.56,0,0,0-3.8,12.34c0,10,6.59,18.34,15.24,20l3.34,48.73c.29,4.14,3,7.32,6.28,7.32h16.77Z"></path><path class="cls-5" d="M124.63,283.3l-3.09-45c-.45-6.36-3.54-11.66-7.84-14.17a17.07,17.07,0,0,0-9.51-3.69,10.12,10.12,0,0,0-1.1-.05,16.63,16.63,0,0,0-8,2,2.53,2.53,0,0,0-.23.12,19,19,0,0,0-6.36,5.77h0a21.56,21.56,0,0,0-3.8,12.34c0,10,6.59,18.34,15.24,20l3.34,48.73c.29,4.14,3,7.32,6.28,7.32h16.77Z"></path><ellipse class="cls-16" cx="244.16" cy="356.93" rx="33.54" ry="8.58"></ellipse><ellipse class="cls-31" cx="244.16" cy="355.51" rx="33.54" ry="7.15"></ellipse><polygon class="cls-16" points="246.93 355.5 241.39 355.5 234.99 286.48 253.33 286.48 246.93 355.5"></polygon><path class="cls-16" d="M253.33,286.48c0,2-4.1,3.64-9.17,3.64s-9.17-1.63-9.17-3.64,4.11-3.64,9.17-3.64S253.33,284.47,253.33,286.48Z"></path><path class="cls-13" d="M253.33,286.48c0,2-4.1,3.64-9.17,3.64s-9.17-1.63-9.17-3.64,4.11-3.64,9.17-3.64S253.33,284.47,253.33,286.48Z"></path><path class="cls-13" d="M132,287.56a3.1,3.1,0,0,1,1.07-2.16c7.75,7.8,56.92,13.81,116.42,13.81S358.2,293.2,366,285.4a3.1,3.1,0,0,1,1.07,2.16c0,8.81-52.61,16-117.5,16S132,296.37,132,287.56Z"></path><path class="cls-13" d="M133.11,289.55c7.75-7.8,56.92-13.8,116.42-13.8s108.67,6,116.43,13.8c-7.76,7.8-56.93,13.81-116.43,13.81S140.86,297.35,133.11,289.55Z"></path><path class="cls-13" d="M132,287.25c0-8.82,52.6-16,117.49-16s117.5,7.14,117.5,16A3.06,3.06,0,0,1,366,289.4c-7.76-7.8-56.93-13.8-116.43-13.8s-108.67,6-116.42,13.8A3.06,3.06,0,0,1,132,287.25Z"></path><path class="cls-16" d="M294.85,279.47l-49.16-.92a1,1,0,0,1-.89-1.12h0a1,1,0,0,1,.94-1.08l49.16.93a1,1,0,0,1,.9,1.11h0A1,1,0,0,1,294.85,279.47Z"></path><path class="cls-32" d="M294.85,279.47l-49.16-.92a1,1,0,0,1-.89-1.12h0a1,1,0,0,1,.94-1.08l49.16.93a1,1,0,0,1,.9,1.11h0A1,1,0,0,1,294.85,279.47Z"></path><path class="cls-16" d="M318.72,275.89l-23.5,3.55a1,1,0,0,1-1-.95h0a1.09,1.09,0,0,1,.81-1.23l23.5-3.55a1,1,0,0,1,1,1h0A1.1,1.1,0,0,1,318.72,275.89Z"></path><polygon class="cls-16" points="318.51 273.71 268.83 273.71 245.74 276.35 293.56 277.25 318.51 273.71"></polygon><polygon class="cls-33" points="318.51 273.71 268.83 273.71 245.74 276.35 293.56 277.25 318.51 273.71"></polygon><path class="cls-14" d="M318.72,275.89l-23.5,3.55a1,1,0,0,1-1-.95h0a1.09,1.09,0,0,1,.81-1.23l23.5-3.55a1,1,0,0,1,1,1h0A1.1,1.1,0,0,1,318.72,275.89Z"></path><path class="cls-11" d="M293.56,277.25l-45.84-.86a3.56,3.56,0,0,1-3.11-3.57l-1.38-27.67c-.1-1.93,1.15-3.48,2.76-3.45l45.84.86a3.55,3.55,0,0,1,3.11,3.57l1.39,27.67C296.42,275.73,295.18,277.28,293.56,277.25Z"></path><path class="cls-32" d="M293.56,277.25l-45.84-.86a3.56,3.56,0,0,1-3.11-3.57l-1.38-27.67c-.1-1.93,1.15-3.48,2.76-3.45l45.84.86a3.55,3.55,0,0,1,3.11,3.57l1.39,27.67C296.42,275.73,295.18,277.28,293.56,277.25Z"></path><path class="cls-11" d="M292.22,277.11l-45.84-.87a3.56,3.56,0,0,1-3.12-3.56L241.88,245c-.1-1.93,1.15-3.49,2.77-3.46l45.83.87A3.56,3.56,0,0,1,293.6,246L295,273.65C295.08,275.58,293.83,277.14,292.22,277.11Z"></path><path class="cls-33" d="M292.22,277.11l-45.84-.87a3.56,3.56,0,0,1-3.12-3.56L241.88,245c-.1-1.93,1.15-3.49,2.77-3.46l45.83.87A3.56,3.56,0,0,1,293.6,246L295,273.65C295.08,275.58,293.83,277.14,292.22,277.11Z"></path><path class="cls-7" d="M262.36,258.87a5.41,5.41,0,0,0,5.29,4.87,4.4,4.4,0,0,0,4.44-4.87A5.43,5.43,0,0,0,266.8,254,4.38,4.38,0,0,0,262.36,258.87Z"></path></g></g></svg>